<svg xmlns="http://www.w3.org/2000/svg" xmlns:xlink="http://www.w3.org/1999/xlink" width="29.976" height="29.976" viewBox="0 0 30 30"><g transform="translate(-5.012 -12.374)"><path d="M19.64 12.38c-.508.012-1.006.037-1.5.098l.405 3.232.835 6.678c.168-.02.327-.007.5-.012.258-.006.502-.018.75.014l1.23-9.908c-.726-.09-1.466-.12-2.22-.103z" id="a" fill="#f2d6f3"/><use xlink:href="#a" transform="matrix(.866 .5 -.5 .866 16.361 -6.334)" width="744.094" height="1052.362" opacity=".233"/><use xlink:href="#a" transform="matrix(.5 .866 -.866 .5 33.696 -3.639)" width="744.094" height="1052.362" opacity=".388"/><use xlink:href="#a" transform="matrix(0 1 -1 0 47.362 7.362)" width="744.094" height="1052.362" opacity=".47"/><use xlink:href="#a" transform="matrix(-.5 .866 -.866 -.5 53.696 23.723)" width="744.094" height="1052.362" opacity=".668"/><use xlink:href="#a" transform="matrix(-.866 .5 -.5 -.866 51.002 41.059)" width="744.094" height="1052.362" opacity=".659"/><use xlink:href="#a" transform="matrix(-1 0 0 -1 40 54.724)" width="744.094" height="1052.362" opacity=".78"/><use xlink:href="#a" transform="matrix(-.866 -.5 .5 -.866 23.639 61.059)" width="744.094" height="1052.362" opacity=".858"/><use xlink:href="#a" transform="matrix(-.5 -.866 .866 -.5 6.304 58.364)" width="744.094" height="1052.362" opacity=".922"/><use xlink:href="#a" transform="matrix(0 -1 1 0 -7.362 47.362)" width="744.094" height="1052.362" opacity=".961"/><use xlink:href="#a" transform="matrix(.5 -.866 .866 .5 -13.696 31.002)" width="744.094" height="1052.362"/><use xlink:href="#a" transform="matrix(.866 -.5 .5 .866 -11.002 13.666)" width="744.094" height="1052.362"/></g></svg>