<?xml version="1.0" encoding="UTF-8" standalone="no"?>
<!-- Created with Inkscape (http://www.inkscape.org/) -->

<svg
   xmlns:dc="http://purl.org/dc/elements/1.1/"
   xmlns:cc="http://creativecommons.org/ns#"
   xmlns:rdf="http://www.w3.org/1999/02/22-rdf-syntax-ns#"
   xmlns:svg="http://www.w3.org/2000/svg"
   xmlns="http://www.w3.org/2000/svg"
   xmlns:xlink="http://www.w3.org/1999/xlink"
   version="1.1"
   width="100%"
   height="100%"
   viewBox="0 0 30 30"
   id="svg2">
  <defs
     id="defs4" />
  <metadata
     id="metadata7">
    <rdf:RDF>
      <cc:Work
         rdf:about="">
        <dc:format>image/svg+xml</dc:format>
        <dc:type
           rdf:resource="http://purl.org/dc/dcmitype/StillImage" />
        <dc:title></dc:title>
      </cc:Work>
    </rdf:RDF>
  </metadata>
  <g
     transform="translate(-5.0121388,-12.374321)"
     id="layer1">
    <path
       d="m 19.639349,12.37934 c -0.50707,0.01223 -1.005111,0.03752 -1.498062,0.09857 l 0.403993,3.231875 0.834854,6.678683 c 0.167625,-0.02111 0.327316,-0.0079 0.499855,-0.01206 0.257831,-0.0063 0.502313,-0.01849 0.750534,0.01319 l 1.230694,-9.907484 C 21.134013,12.392 20.393887,12.361143 19.639349,12.379305 z"
       id="path3001"
       style="fill:#f2d6f3;fill-opacity:1;stroke:none" />
    <use
       transform="matrix(0.8660254,0.5,-0.5,0.8660254,16.360583,-6.3341626)"
       id="use4251"
       style="opacity:0.23275865"
       x="0"
       y="0"
       width="744.09448"
       height="1052.3622"
       xlink:href="#path3001" />
    <use
       transform="matrix(0.5,0.8660254,-0.8660254,0.5,33.696345,-3.6394168)"
       id="use4253"
       style="opacity:0.38793102"
       x="0"
       y="0"
       width="744.09448"
       height="1052.3622"
       xlink:href="#path3001" />
    <use
       transform="matrix(0,1,-1,0,47.362183,7.3621826)"
       id="use4255"
       style="opacity:0.46982763"
       x="0"
       y="0"
       width="744.09448"
       height="1052.3622"
       xlink:href="#path3001" />
    <use
       transform="matrix(-0.5,0.8660254,-0.8660254,-0.5,53.696345,23.722766)"
       id="use4257"
       style="opacity:0.66810345"
       x="0"
       y="0"
       width="744.09448"
       height="1052.3622"
       xlink:href="#path3001" />
    <use
       transform="matrix(-0.8660254,0.5,-0.5,-0.8660254,51.001599,41.058528)"
       id="use4259"
       style="opacity:0.65948277"
       x="0"
       y="0"
       width="744.09448"
       height="1052.3622"
       xlink:href="#path3001" />
    <use
       transform="matrix(-1,0,0,-1,40,54.724365)"
       id="use4261"
       style="opacity:0.78017243"
       x="0"
       y="0"
       width="744.09448"
       height="1052.3622"
       xlink:href="#path3001" />
    <use
       transform="matrix(-0.8660254,-0.5,0.5,-0.8660254,23.639417,61.058528)"
       id="use4263"
       style="opacity:0.85775865"
       x="0"
       y="0"
       width="744.09448"
       height="1052.3622"
       xlink:href="#path3001" />
    <use
       transform="matrix(-0.5,-0.8660254,0.8660254,-0.5,6.3036548,58.363782)"
       id="use4265"
       style="opacity:0.92241378"
       x="0"
       y="0"
       width="744.09448"
       height="1052.3622"
       xlink:href="#path3001" />
    <use
       transform="matrix(0,-1,1,0,-7.3621826,47.362183)"
       id="use4267"
       style="opacity:0.96120689"
       x="0"
       y="0"
       width="744.09448"
       height="1052.3622"
       xlink:href="#path3001" />
    <use
       transform="matrix(0.5,-0.8660254,0.8660254,0.5,-13.696345,31.001599)"
       id="use4269"
       x="0"
       y="0"
       width="744.09448"
       height="1052.3622"
       xlink:href="#path3001" />
    <use
       transform="matrix(0.8660254,-0.5,0.5,0.8660254,-11.001599,13.665837)"
       id="use4271"
       x="0"
       y="0"
       width="744.09448"
       height="1052.3622"
       xlink:href="#path3001" />
  </g>
</svg>
